<svg xmlns="http://www.w3.org/2000/svg" viewBox="1380 70 1560 1010"><title>SKJW</title><defs><linearGradient id="g" x1="0" y1="0" x2="1" y2="0.2"><stop offset="0" stop-color="#f6e9a6"/><stop offset=".3" stop-color="#fbf4c4"/><stop offset=".55" stop-color="#d9b25a"/><stop offset=".75" stop-color="#c99c45"/><stop offset="1" stop-color="#f6e3a0"/></linearGradient></defs><path fill="url(#g)" fill-rule="evenodd" d="M1664 195c-3 0-12 0-12 0c0 0-5-5-6-8c-1-3-1-14 1-20c2-6 5-13 9-19c4-6 13-16 18-21c5-5 12-9 18-12c6-3 17-6 19-7c2-1 6 0 6 0c0 0 3 2 3 4c0 2 1 5 0 7c-1 2-7 27-12 37c-5 10-17 22-21 26c-4 4-13 9-15 10c-2 1-5 3-8 3Z  M2644 196c0 0-15-3-19-5c-4-2-7-4-10-7c-3-3-8-8-12-13c-4-5-9-12-12-19c-3-7-8-23-9-26c-1-3-1-6 0-9c1-3 4-7 4-7c0 0 7-1 11 0c4 1 13 5 18 9c5 4 20 16 25 22c5 6 9 16 11 22c2 6 3 16 3 19c0 3-1 7-3 9c-2 2-7 5-7 5Z  M1793 447c-3 0-82 0-85 0c-3 0-9-3-9-3c0 0-3-5-3-8c0-3 3-13 6-19c3-6 11-26 18-39c7-13 16-30 25-44c9-14 21-29 32-43c11-14 29-33 39-43c10-10 21-18 32-27c11-9 34-27 52-38c18-11 55-28 64-32c9-4 18-7 27-10c9-3 35-11 51-15c16-4 33-5 48-7c15-2 31-3 44-4c13-1 25-1 38 0c13 1 28 2 40 4c12 2 24 3 36 6c12 3 29 6 43 11c14 5 48 19 60 24c12 5 26 12 35 17c9 5 18 10 26 16c8 6 23 16 34 25c11 9 29 24 35 29c6 5 12 11 17 17c5 6 22 24 30 35c8 11 17 22 24 33c7 11 21 36 23 39c2 3 2 8 3 10c1 2 4 4 5 6c1 2 7 13 8 17c1 4 1 9 2 12c1 3 5 5 6 7c1 2 2 5 2 7c0 2-3 7-3 7l-5-1c0 0-3-12-4-14c-1-2-4-4-5-6c-1-2-2-9-3-11c-1-2-5-3-6-5c-1-2-1-8-3-11c-2-3-22-33-32-46c-10-13-20-25-31-37c-11-12-25-25-39-36c-14-11-31-24-46-34c-15-10-31-19-48-26c-17-7-42-16-63-22c-21-6-59-13-75-15c-16-2-41-2-49-2c-8 0-16 1-24 2c-8 1-26 4-39 6c-13 2-27 5-40 9c-13 4-28 9-42 15c-14 6-54 25-70 34c-16 9-30 21-44 33c-14 12-45 43-54 53c-9 10-18 23-25 32c-7 9-12 19-18 29c-6 10-19 35-21 39c-2 4-4 11-5 14c-1 3-4 5-6 7c-2 2-5 3-8 3Z  M1621 260c-4 0-9-2-12-4c-3-2-6-4-7-7c-1-3-7-26-8-32c-1-6 0-13 1-19c1-6 3-24 5-30c2-6 6-14 8-17c2-3 10-7 10-7c0 0 3 1 4 2c1 1 3 4 4 6c1 2 5 16 6 24c1 8 1 19 1 24c0 5-3 15-3 16c0 1 1 4 1 4c0 0 4 1 5 0c1-1 4-4 7-6c3-2 10-6 16-8c6-2 15-4 22-5c7-1 18 0 20 0c2 0 3 2 4 3c1 1 2 3 2 5c0 2-1 4-2 6c-1 2-9 10-14 14c-5 4-11 9-17 12c-6 3-27 12-33 14c-6 2-16 5-20 5Z  M2689 258c-2 0-10 1-15 0c-5-1-14-2-21-4c-7-2-13-5-19-9c-6-4-24-17-28-20c-4-3-9-9-10-10c-1-1-1-4-1-5c0-1 0-3 1-4c1-1 3-4 5-4c2 0 13-1 19 0c6 1 14 1 21 4c7 3 22 12 23 13c1 1 4 0 4 0c0 0-1-24-1-30c0-6 2-12 3-18c1-6 3-13 5-17c2-4 9-8 9-8c0 0 4 1 6 3c2 2 3 5 4 7c1 2 8 18 9 23c1 5 2 10 2 15c0 5 1 16 1 22c0 6 0 13-2 19c-2 6-9 18-10 20c-1 2-3 3-5 3Z  M2092 467c-4 0-14-1-20-4c-6-3-18-13-18-13l4-17c0 0 10-2 13-6c3-4 8-17 8-17c0 0-5-7-5-11c0-4 2-13 2-13c0 0-3-6-5-7c-2-1-6-2-7-2c-1 0-4 1-4 1c0 0-1 10-2 14c-1 4-7 11-7 11l1 4l5 1l1 3l-7 4c0 0-7-2-8-3c-1-1-3-2-3-4c0-2-2-7-1-10c1-3 4-8 5-12c1-4 2-8 1-11c-1-3-4-7-5-9c-1-2 0-5 0-5l5-2c0 0 9 4 12 5c3 1 9 0 9 0l17-19c0 0 5 7 9 8c4 1 11 1 15 0c4-1 10-4 10-4l4-12l13-3c0 0 14-31 16-36c2-5 5-9 9-13c4-4 14-11 18-13c4-2 13-6 13-6c0 0-1-13 1-17c2-4 7-9 9-11c2-2 8-4 8-4l-1-6c0 0-13 14-22 15c-9 1-70 1-74 1c-4 0-8 3-12 4c-4 1-23 2-34 5c-11 3-27 8-40 13c-13 5-46 20-55 25c-9 5-17 10-25 16c-8 6-32 25-46 39c-14 14-28 32-39 47c-11 15-29 47-29 47l-7 2c0 0-2-5-2-7c0-2 1-7 3-10c2-3 13-27 21-39c8-12 36-52 44-62c8-10 18-19 28-28c10-9 26-23 40-33c14-10 42-26 53-32c11-6 25-13 33-16c8-3 16-7 24-9c8-2 38-12 57-15c19-3 51-5 61-6c10-1 21 1 29 1c8 0 19 1 23 2c4 1 9 2 11 3c2 1 4 5 4 5l-4 9l11 1c0 0 3 3 3 4c0 1 0 3 0 3l-6 5l4 3l5-1c0 0 4-13 6-17c2-4 9-8 10-9c1-1 3 0 3 0l5 5c0 0 9-2 13-1c4 1 47 15 67 24c20 9 46 24 58 32c12 8 26 19 34 26c8 7 16 14 24 22c8 8 22 21 31 33c9 12 29 41 35 50c6 9 11 19 15 27c4 8 10 24 10 24l-3 8c0 0-4 2-6 2c-2 0-80 1-84 1c-4 0-10-3-12-4c-2-1-5-3-6-5c-1-2-9-18-14-26c-5-8-10-17-16-24c-6-7-25-30-38-43c-13-13-34-29-43-36c-9-7-17-13-27-19c-10-6-32-15-35-17c-3-2-7-9-7-9c0 0-3 2-4 3c-1 1-11 17-11 17l-16 4l-2 3l3 3c0 0 18 0 22 1c4 1 9 5 11 6c2 1 4 3 6 5c2 2 4 8 5 10c1 2 5 3 6 4c1 1 1 2 1 3c0 1-1 17-2 21c-1 4-6 6-8 9c-2 3-3 8-6 11c-3 3-14 10-14 10l-8-4l-10 10l6 6c0 0-6 6-7 8c-1 2 0 8 0 8c0 0 9 3 11 4c2 1 4 5 4 5l-12 9c0 0 4 9 4 11c0 2 0 6 0 6l-5 1l-5-4c0 0 0-4 0-6c0-2 3-8 3-8c0 0-3-3-5-4c-2-1-5-1-8 0c-3 1-9 6-11 7c-2 1-6 0-6 0l-4-4c0 0 5-6 5-7c0-1 0-2 0-2c0 0-22-2-27-3c-5-1-13-7-13-7l-4 4c0 0 0 10 0 13c0 3-1 6-2 8c-1 2-3 3-4 4c-1 1-5 1-5 1l-2-3c0 0 3-6 3-9c0-3-1-24-1-24l-2-2c0 0-6 1-9 0c-3-1-7-4-7-4c0 0-3 1-4 2c-1 1-7 9-8 14c-1 5 0 19 1 23c1 4 5 9 5 12c0 3-2 8-2 8c0 0-10-14-12-21c-2-7 0-17 1-21c1-4 3-7 4-11c1-4 0-15 0-15l-4 0l-1 10c0 0-4 3-6 3c-2 0-5 0-8-1c-3-1-8-5-13-6c-5-1-17-1-20-1c-3 0-9 4-9 4c0 0 4 6 4 9c0 3-2 9-2 12c0 3 4 9 4 9l-11 26c0 0 2 3 3 3c1 0 13 3 13 3c0 0 6-10 7-11c1-1 3-2 3-2l8 15c0 0-3 8-6 11c-3 3-7 4-11 4Z  M2291 236c0 0 1-5 1-8c0-3-6-18-6-19c0-1-2-2-2-2l-3 3c0 0-1 5 0 7c1 2 10 19 10 19Z  M1576 334c-3 1-7 0-10-1c-3-1-7-3-9-6c-2-3-10-27-11-34c-1-7-1-13-1-20c0-7 1-16 3-23c2-7 10-30 11-31c1-1 2-2 3-3c1-1 5-2 5-2l8 3c0 0 7 22 9 30c2 8 2 15 2 23c0 8-1 24-1 24c0 0 13-11 20-14c7-3 26-8 33-9c7-1 19-1 21-1c2 0 5 3 5 3l1 4c0 0-5 11-9 15c-4 4-20 16-27 21c-7 5-14 10-22 13c-8 3-28 7-31 8Z  M2732 334c-3 1-6 1-9 0c-3-1-13-3-19-5c-6-2-20-8-29-13c-9-5-20-14-24-18c-4-4-10-11-12-13c-2-2-3-7-3-7c0 0 2-4 3-5c1-1 3-2 5-2c2 0 15-2 23 0c8 2 20 7 27 10c7 3 18 12 19 12c1 0 3 0 3 0c0 0 1-46 2-54c1-8 8-19 9-21c1-2 5-4 5-4c0 0 4 1 5 2c1 1 4 4 5 7c1 3 5 11 7 16c2 5 3 11 4 16c1 5 1 19 1 27c0 8-1 17-2 23c-1 6-6 15-7 17c-1 2-2 4-4 6c-2 2-6 5-9 6Z  M2228 274c0 0 8-11 9-12c1-1 0-3 0-3c0 0-3 0-4 1c-1 1-8 10-8 11c0 1 0 3 0 3l3 0Z  M2771 412c-4 0-18-1-26-4c-8-3-19-7-27-13c-8-6-26-22-31-27c-5-5-12-15-13-16c-1-1-2-5-2-5c0 0 3-4 6-5c3-1 13-2 19-1c6 1 22 5 32 10c10 5 26 19 26 19c0 0 3-4 3-6c0-2-2-15-2-21c0-6 2-12 4-18c2-6 11-31 12-34c1-3 7-7 7-7c0 0 5 3 7 5c2 2 4 8 5 12c1 4 5 19 6 28c1 9 1 20 0 30c-1 10-4 28-6 33c-2 5-6 11-9 14c-3 3-7 6-11 6Z  M1535 412c-3 1-7 1-9 0c-2-1-4-2-6-4c-2-2-8-9-10-15c-2-6-6-17-7-26c-1-9 0-39 1-48c1-9 7-24 8-27c1-3 8-5 8-5c0 0 6 1 7 3c1 2 9 15 11 23c2 8 6 34 7 39c1 5-1 16-1 16c0 0 6-1 8-3c2-2 12-10 19-14c7-4 17-7 24-9c7-2 20-2 23-2c3 0 7 2 8 3c1 1 3 4 3 4c0 0-2 4-3 6c-1 2-14 18-21 24c-7 6-15 11-22 16c-7 5-14 10-22 13c-8 3-23 5-26 6Z  M2218 359c0 0 3-5 5-7c2-2 6-1 8-3c2-2 6-5 8-8c2-3 3-16 3-16c0 0-2-3-3-4c-1-1-7-4-11-6c-4-2-15-6-15-6l-3-10c0 0-5 2-6 4c-1 2-1 6-3 8c-2 2-12 12-14 17c-2 5-2 14-2 16c0 2 2 5 4 6c2 1 19 6 19 6l2-1c0 0-2-3-3-5c-1-2-1-9-1-9c0 0 2-2 3-2c1 0 8 0 8 0c0 0 3 2 3 4c0 2 0 7 0 7l-10 6l8 3Z  M2129 376c1 0 4-2 4-2c0 0 1-7 3-10c2-3 9-8 9-8c0 0-3-12-4-13c-1-1-3-3-3-3c0 0-3 1-4 2c-1 1-3 4-4 6c-1 2-2 16-2 16l-9 5l3 7c0 0 6 0 7 0Z  M2264 354c0 0 2-4 2-6c0-2-2-5-2-5l-4 2c0 0-1 4-1 5c0 1 1 3 1 3l4 1Z  M2243 401c0 0 7-10 9-16c2-6 3-21 3-22c0-1-2-4-2-4c0 0-4 0-6 1c-2 1-4 5-7 7c-3 2-8 1-12 3c-4 2-9 10-9 10l-16-11l-6 1l-5 8c0 0-9-9-13-11c-4-2-11 1-14 0c-3-1-7-4-8-5c-1-1-4 0-4 0c0 0-2 2-2 3c0 1-1 4-1 5c0 1 1 3 2 4c1 1 4 2 6 3c2 1 13 2 13 2l8 11l9 1l7-8l12 11c0 0 3 1 4 0c1-1 8-7 8-7l14 4l6 10l4 0Z  M2101 371l3-3c0 0-1-3-1-4c0-1-2-2-2-2l-4 0l-2 2l0 4l6 3Z  M1515 506c-4 0-9 0-13-1c-4-1-7-5-9-8c-2-3-9-12-12-19c-3-7-8-16-10-25c-2-9-4-35-4-44c0-9 3-24 4-27c1-3 6-6 6-6c0 0 4 0 6 0c2 0 3 2 4 3c1 1 14 25 17 31c3 6 7 13 8 20c1 7 3 36 3 36c0 0 8-13 13-18c5-5 17-14 21-16c4-2 9-3 12-4c3-1 5-5 8-6c3-1 19-4 21-4c2 0 6 0 6 0c0 0 2 2 2 3c0 1 0 5-1 8c-1 3-5 11-8 16c-3 5-16 21-22 27c-6 6-12 12-19 17c-7 5-19 12-22 14c-3 2-7 3-11 3Z  M2797 506c-2 2-5 1-8 1c-3 0-13-2-18-5c-5-3-21-14-29-21c-8-7-16-15-22-23c-6-8-15-24-16-26c-1-2-2-7-2-8c0-1 2-4 2-4c0 0 3-1 4-1c1 0 15 0 22 3c7 3 27 15 31 17c4 2 8 5 11 8c3 3 6 10 7 11c1 1 3 1 3 1c0 0 6-24 8-32c2-8 4-16 8-24c4-8 13-20 14-22c1-2 4-3 5-4c1-1 4-1 4-1c0 0 5 3 6 5c1 2 3 10 4 15c1 5 2 17 2 26c0 9-3 22-4 28c-1 6-3 12-5 18c-2 6-4 13-8 18c-4 5-17 18-19 20Z  M2111 432l-7 0l1-6c0 0 8-4 11-7c3-3 6-10 6-10l4 1l2 3c0 0-1 4-2 5c-1 1-15 14-15 14Z  M2039 434l-7-1l-4-5c0 0 1-4 2-5c1-1 7-4 7-4c0 0 4 1 5 2c1 1 2 3 2 4c0 1-1 6-1 6l-4 3Z  M2168 480c-5 1-10 0-14-1c-4-1-8-6-9-8c-1-2-2-5-2-7c0-2 4-9 4-10c0-1 2-2 2-2c0 0 2 1 3 2c1 1 10 10 10 10l16-3l3-5c0 0-4-7-4-9c0-2 1-5 1-5c0 0 5-4 8-4c3 0 9 2 9 2c0 0 5 6 6 10c1 4 0 8-2 11c-2 3-7 8-11 11c-4 3-15 7-20 8Z  M1501 608c-4 1-9 0-12-1c-3-1-6-4-9-6c-3-2-7-6-10-10c-3-4-13-17-16-24c-3-7-5-14-7-22c-2-8-4-32-5-38c-1-6-1-12 0-18c1-6 7-16 7-16l6 1c0 0 16 21 23 32c7 11 21 41 21 41c0 0 12-13 19-19c7-6 16-12 23-16c7-4 20-8 22-8c2 0 5 0 5 0c0 0 2 2 2 3c0 1 0 10-1 15c-1 5-5 12-8 18c-3 6-10 19-17 28c-7 9-20 23-25 28c-5 5-14 11-18 12Z  M2806 609c-2 1-5 0-7-1c-2-1-11-5-15-9c-4-4-18-19-23-24c-5-5-8-11-12-17c-4-6-10-20-13-25c-3-5-6-14-7-16c-1-2-1-4 0-6c1-2 2-4 3-5c1-1 4-2 4-2c0 0 14 4 20 7c6 3 30 20 33 22c3 2 7 8 8 9c1 1 5 2 5 2c0 0 9-20 13-27c4-7 9-14 13-20c4-6 12-15 14-17c2-2 6-4 7-5c1-1 4-1 4-1c0 0 3 3 3 5c0 2 2 9 2 14c0 5 0 24 0 29c0 5-1 9-2 14c-1 5-6 20-10 29c-4 9-10 21-13 25c-3 4-8 8-12 11c-4 3-13 7-15 8Z  M2625 720c-3 0-7 0-10-1c-3-1-8-2-12-4c-4-2-13-8-17-14c-4-6-69-123-70-124c-1-1-4-3-4-3c0 0-3 1-4 2c-1 1-7 10-10 15c-3 5-61 109-63 113c-2 4-7 7-11 9c-4 2-14 6-19 7c-5 1-9 1-14 0c-5-1-14-4-19-8c-5-4-10-10-13-16c-3-6-8-24-12-36c-4-12-11-44-15-57c-4-13-11-31-13-38c-2-7-3-19-4-22c-1-3-3-5-4-8c-1-3-5-17-7-24c-2-7-4-17-4-20c0-3 1-8 1-8c0 0 5-4 8-4c3 0 22-1 30-1c8 0 20 0 24 1c4 1 11 4 11 4c0 0 7 18 10 28c3 10 8 35 12 49c4 14 11 39 12 41c1 2 3 4 3 4c0 0 5-5 7-8c2-3 12-20 17-30c5-10 26-51 29-56c3-5 5-10 8-14c3-4 7-8 9-10c2-2 6-5 8-6c2-1 5-3 8-3c3 0 13-1 19-1c6 0 12 0 18 3c6 3 13 7 17 13c4 6 48 89 50 92c2 3 2 7 4 10c2 3 9 11 9 11c0 0 5-6 6-10c1-4 16-63 20-75c4-12 12-36 12-36c0 0 6-5 9-5c3 0 34-1 41-1c7 0 20 3 20 3c0 0 3 5 3 8c0 3-4 19-5 23c-1 4-5 8-6 12c-1 4-7 29-11 44c-4 15-35 118-38 126c-3 8-16 18-18 20c-2 2-6 3-9 4c-3 1-10 1-13 1Z  M1791 718c-14 0-207 0-208 0c-1 0-4-2-4-2l-2-7c0 0 2-4 3-6c1-2 28-39 31-43c3-4 8-8 13-10c5-2 13-2 19-2c6 0 153 1 157 1c4 0 9-2 11-4c2-2 5-7 5-7c0 0-2-7-4-9c-2-2-5-4-8-4c-3 0-144-1-153-1c-9 0-20-4-27-6c-7-2-13-6-19-10c-6-4-13-13-16-18c-3-5-5-11-6-17c-1-6-2-16-2-22c0-6 2-12 3-18c1-6 3-13 6-18c3-5 8-12 14-16c6-4 13-9 21-12c8-3 21-6 32-7c11-1 155-2 161-2c6 0 15 1 17 1c2 0 3 2 4 3c1 1 3 5 3 8c0 3 0 39 0 42c0 3 0 6-1 8c-1 2-4 4-4 4c0 0-151 2-157 2c-6 0-14 5-16 6c-2 1-4 5-4 5l2 8c0 0 10 6 16 6c6 0 129 1 136 1c7 0 18 1 20 2c2 1 5 2 6 4c1 2 2 5 2 7c0 2 0 15 0 22c0 7-1 98-1 100c0 2-2 3-3 4c-1 1-4 2-6 2c-2 0-27 5-41 5Z  M2065 717c-4 1-9 1-13 0c-4-1-9-2-12-5c-3-3-78-69-83-73c-5-4-15-10-15-10c0 0-3 2-3 4c0 2 1 71 1 73c0 2-1 4-2 6c-1 2-4 3-6 4c-2 1-4 1-6 1c-2 0-46 1-49 1c-3 0-7-2-8-2c-1 0-4-2-4-2c0 0-3-5-3-8c0-3-1-161-1-175c0-14 1-38 1-41c0-3 4-9 4-9c0 0 5-2 7-2c2 0 19-1 28-1c9 0 24 1 27 1c3 0 8 3 8 3c0 0 4 6 4 9c0 3-1 63-1 65c0 2 3 5 3 5c0 0 75-70 101-81c26-11 81-1 85-1c4 0 10 1 12 1c2 0 5 2 5 2c0 0 0 4-1 5c-1 1-5 7-8 10c-3 3-103 77-107 80c-4 3-11 7-13 8c-2 1-5 5-5 5c0 0 1 5 3 6c2 1 31 23 46 35c15 12 43 36 43 36c0 0 1 6 0 9c-1 3-7 10-11 15c-4 5-13 16-16 19c-3 3-7 6-11 7Z  M2159 717c-16 0-45-1-47-1c-2 0-6-3-6-3l-1-6c0 0 28-38 32-43c4-5 13-14 13-14c0 0 44-1 53-1c9 0 23-2 26-3c3-1 6-1 9-3c3-2 10-5 13-10c3-5 7-16 8-25c1-9 1-115 1-118c0-3 4-8 4-8c0 0 4-1 6 0c2 1 4 3 6 5c2 2 3 5 4 8c1 3 18 66 19 71c1 5 5 9 6 14c1 5 7 35 9 40c2 5 5 10 7 15c2 5 4 19 4 22c0 3 0 6-2 9c-2 3-13 15-17 19c-4 4-8 7-12 10c-4 3-12 7-18 9c-6 2-24 7-30 8c-6 1-13 3-19 3c-6 0-52 2-68 2Z  M1502 707c0 0-11 0-16-2c-5-2-9-5-13-9c-4-4-13-12-18-19c-5-7-11-15-15-24c-4-9-7-19-9-28c-2-9-5-25-6-30c-1-5 1-12 1-14c0-2 3-6 3-6c0 0 7-1 10 1c3 2 10 10 15 16c5 6 23 29 28 36c5 7 12 23 12 23l3-1c0 0 6-14 11-20c5-6 17-19 21-22c4-3 8-6 13-8c5-2 16-7 18-8c2-1 5-1 5-1l3 3c0 0 1 9 0 14c-1 5-5 16-8 23c-3 7-9 21-15 31c-6 10-21 28-26 33c-5 5-17 12-17 12Z  M2803 708c-3 0-6-1-9-3c-3-2-7-5-10-8c-3-3-9-8-13-12c-4-4-7-9-10-14c-3-5-7-11-10-17c-3-6-13-31-15-35c-2-4-3-11-3-14c0-3 0-9 0-9c0 0 3-2 4-3c1-1 3-1 5 0c2 1 21 11 26 14c5 3 11 7 15 12c4 5 22 29 22 29c0 0 5-3 6-5c1-2 3-8 5-11c2-3 10-15 15-22c5-7 14-17 18-21c4-4 11-11 13-12c2-1 8-1 8-1c0 0 3 2 3 4c0 2 1 7 1 10c0 3 0 22-3 32c-3 10-12 32-15 39c-3 7-9 15-13 20c-4 5-10 11-14 14c-4 3-9 6-13 8c-4 2-10 5-13 5Z  M1527 813c0 0-18-3-23-5c-5-2-10-4-15-7c-5-3-17-14-21-18c-4-4-8-8-11-13c-3-5-14-19-18-25c-4-6-6-13-9-19c-3-6-7-19-8-22c-1-3 0-6 0-8c0-2 2-5 2-5c0 0 4-1 6 0c2 1 15 7 22 12c7 5 36 30 42 35c6 5 15 18 15 18c0 0 8-25 10-31c2-6 6-11 10-16c4-5 14-16 18-20c4-4 11-9 12-10c1-1 5-2 5-2c0 0 4 1 5 3c1 2 2 4 2 6c0 2 0 26-2 39c-2 13-5 27-9 38c-4 11-12 27-15 32c-3 5-8 11-10 13c-2 2-8 5-8 5Z  M2775 812c-3 0-7-1-10-3c-3-2-9-10-12-16c-3-6-6-13-8-19c-2-6-7-18-9-27c-2-9-7-50-7-54c0-4 3-10 4-12c1-2 5-3 5-3c0 0 4 1 5 2c1 1 20 18 26 26c6 8 11 18 14 25c3 7 8 22 8 22c0 0 17-17 26-25c9-8 27-21 32-25c5-4 12-8 16-9c4-1 12-2 12-2c0 0 1 8 0 12c-1 4-8 27-11 33c-3 6-6 12-10 17c-4 5-16 21-19 25c-3 4-7 8-11 11c-4 3-10 8-15 11c-5 3-11 5-17 7c-6 2-16 4-19 4Z  M2167 1080c-20 1-39 1-59-1c-20-2-55-8-62-9c-7-1-15-3-22-5c-7-2-42-14-50-17c-8-3-16-6-23-10c-7-4-58-32-67-37c-9-5-18-11-26-18c-8-7-31-25-45-39c-14-14-30-33-40-45c-10-12-19-26-28-39c-9-13-18-30-25-43c-7-13-15-34-18-40c-3-6-6-19-6-20c0-1 1-4 1-4c0 0 3-3 5-3c2 0 9-1 14-1c5 0 75 0 77 0c2 0 4 0 6 1c2 1 5 4 6 7c1 3 8 20 13 30c5 10 16 29 24 42c8 13 20 29 27 38c7 9 14 17 22 25c8 8 17 17 26 24c9 7 43 34 52 40c9 6 18 11 27 16c9 5 24 12 36 17c12 5 48 18 61 22c13 4 27 6 40 8c13 2 50 4 58 4c8 0 17 0 25 0c8 0 29-2 44-4c15-2 36-6 46-8c10-2 20-6 30-9c10-3 24-8 35-14c11-6 51-26 68-37c17-11 32-24 46-37c14-13 30-29 43-45c13-16 42-60 44-63c2-3 3-7 4-10c1-3 4-4 5-7c1-3 2-8 3-10c1-2 5-3 6-6c1-3 4-12 4-13c0-1 2-3 2-3l3 1c0 0 0 9-1 12c-1 3-5 5-6 8c-1 3 0 7-1 11c-1 4-7 16-8 19c-1 3-5 4-6 7c-1 3-1 8-3 11c-2 3-6 12-10 18c-4 6-13 20-20 30c-7 10-39 49-46 57c-7 8-14 16-22 23c-8 7-26 23-40 33c-14 10-40 26-52 33c-12 7-25 13-38 19c-13 6-32 13-48 18c-16 5-39 12-59 16c-20 4-52 6-72 7Z  M2218 1009c-15 0-47 0-68-2c-21-2-46-8-63-12c-17-4-33-10-49-17c-16-7-51-26-65-35c-14-9-27-19-40-30c-13-11-26-24-38-37c-12-13-33-41-39-50c-6-9-12-18-17-28c-5-10-13-26-15-30c-2-4-2-13-2-13l4-2c0 0 3 1 4 2c1 1 6 8 9 12c3 4 7 16 12 23c5 7 23 31 29 39c6 8 13 15 20 22c7 7 24 22 36 31c12 9 28 20 39 26c11 6 22 11 33 16c11 5 24 10 36 14c12 4 29 8 44 10c15 2 40 6 60 6c20 0 65-6 79-8c14-2 31-9 40-12c9-3 17-6 25-10c8-4 31-16 46-25c15-9 29-19 42-30c13-11 29-27 40-40c11-13 25-33 31-42c6-9 13-26 15-29c2-3 4-7 8-7c4 0 73-1 79-1c6 0 15 1 17 1c2 0 5 2 5 2c0 0 1 6 0 9c-1 3-9 23-15 34c-6 11-35 56-46 71c-11 15-29 29-40 39c-11 10-22 19-34 27c-12 8-35 24-54 33c-19 9-48 21-67 27c-19 6-42 11-57 13c-15 2-29 3-44 3Z "/></svg>